<?xml version="1.0" standalone="no"?><!DOCTYPE svg PUBLIC "-//W3C//DTD SVG 1.1//EN" "http://www.w3.org/Graphics/SVG/1.1/DTD/svg11.dtd"><svg t="1650107729230" class="icon" viewBox="0 0 1024 1024" version="1.1" xmlns="http://www.w3.org/2000/svg" p-id="3743" xmlns:xlink="http://www.w3.org/1999/xlink" width="200" height="200"><defs><style type="text/css">@font-face { font-family: feedback-iconfont; src: url("//at.alicdn.com/t/font_1031158_u69w8yhxdu.woff2?t=1630033759944") format("woff2"), url("//at.alicdn.com/t/font_1031158_u69w8yhxdu.woff?t=1630033759944") format("woff"), url("//at.alicdn.com/t/font_1031158_u69w8yhxdu.ttf?t=1630033759944") format("truetype"); }
</style></defs><path d="M909.013333 536.106667s11.562667-1.621333 16.554667 1.706666c6.613333 3.285333 4.949333 4.949333 4.949333 8.234667-8.277333 236.885333-207.061333 425.728-443.904 425.728C246.4 971.776 42.666667 776.32 42.666667 531.2c0-217.002667 157.354667-399.189333 371.029333-435.626667a163.413333 163.413333 0 0 1 142.506667 48l266.666666 263.381334-92.757333 92.757333s-13.226667 9.941333-21.546667 8.277333c-8.277333-1.621333-16.554667-11.562667-16.554666-11.562666l-198.784-197.12a8.021333 8.021333 0 0 0-11.605334 0l-225.28 223.573333a8.021333 8.021333 0 0 0 0 11.648l226.986667 221.952a8.021333 8.021333 0 0 0 11.52 0l213.76-208.725333s9.898667-8.277333 13.226667-9.941334c4.949333-1.664 16.554667-1.664 16.554666-1.664h170.624z m-281.6-400.853334c-66.261333-74.538667-127.573333-76.202667-127.573333-76.202666s152.405333-64.597333 286.592 69.546666l142.464 142.506667s9.941333 8.277333 8.277333 13.226667c-3.328 9.941333-8.277333 19.882667-8.277333 19.882666l-66.261333 62.933334-235.221334-231.893334z" fill="#004F9C" p-id="3744"></path></svg>