<?xml version="1.0" standalone="no"?><!DOCTYPE svg PUBLIC "-//W3C//DTD SVG 1.1//EN" "http://www.w3.org/Graphics/SVG/1.1/DTD/svg11.dtd"><svg t="1650107914740" class="icon" viewBox="0 0 1024 1024" version="1.1" xmlns="http://www.w3.org/2000/svg" p-id="5245" xmlns:xlink="http://www.w3.org/1999/xlink" width="200" height="200"><defs><style type="text/css">@font-face { font-family: feedback-iconfont; src: url("//at.alicdn.com/t/font_1031158_u69w8yhxdu.woff2?t=1630033759944") format("woff2"), url("//at.alicdn.com/t/font_1031158_u69w8yhxdu.woff?t=1630033759944") format("woff"), url("//at.alicdn.com/t/font_1031158_u69w8yhxdu.ttf?t=1630033759944") format("truetype"); }
</style></defs><path d="M310.4 124.202667c-9.941333-3.285333-13.226667-6.613333-6.613333-16.554667 0-13.226667 3.285333-19.882667 13.226666-23.168 56.32-24.874667 120.917333-41.386667 193.834667-41.386667 69.546667 0 134.144 16.512 193.792 43.050667 9.941333 6.613333 13.226667 13.226667 13.226667 23.168 0 6.613333-3.285333 13.226667-13.226667 16.554667-69.546667 26.496-140.8 101.077333-140.8 187.178666v655.957334c-16.554667 3.328-36.437333 3.328-52.992 3.328-16.597333 0-36.48-4.949333-53.034667-4.949334V311.424c0-84.48-71.253333-160.682667-147.413333-187.221333zM386.56 954.112c-33.152-9.941333-62.976-19.882667-89.472-36.437333V210.346667c53.034667 23.210667 89.472 76.202667 89.472 140.8v602.965333z m331.264-36.437333c-26.453333 16.554667-59.605333 26.496-89.429333 36.437333V351.146667c0-62.933333 36.437333-117.589333 89.429333-140.8v707.328zM139.776 424.021333c-3.328 0-6.613333 3.328-16.554667 9.941334-16.554667 19.882667-26.496 49.706667-26.496 77.866666 0 29.824 9.941333 56.32 26.453334 77.866667 6.656 0 3.328 3.328 9.984 3.328 6.613333 0 9.941333-6.656 9.941333-9.941333 9.941333-26.538667 33.109333-49.706667 59.605333-49.706667 9.941333 0 19.882667 6.613333 23.210667 9.941333v331.306667c-109.354667-84.48-182.186667-215.381333-182.186667-366.08 0-150.741333 72.832-281.6 187.136-367.786667v331.306667a30.08 30.08 0 0 1-23.168 9.941333c-29.824 0-49.706667-23.168-59.648-49.664 1.664-4.992-4.949333-8.277333-8.277333-8.277333z m798.421333 107.690667c13.226667 0 23.168 9.941333 29.824 36.437333v16.554667c-19.882667 117.632-82.816 223.658667-173.952 294.869333V147.413333c99.413333 76.202667 164.010667 187.178667 177.237334 314.709334a31.829333 31.829333 0 0 1-29.781334 23.210666c-29.866667 0-49.706667-23.210667-59.648-49.706666 0-6.613333-6.613333-9.941333-9.941333-9.941334-6.613333 0-9.941333 3.328-9.941333 3.328-16.554667 19.882667-26.496 49.706667-26.496 77.866667 0 29.824 9.941333 56.32 23.168 77.824 6.656 0 3.328 3.328 9.941333 3.328 6.656 0 9.941333-6.613333 9.941333-9.941333 9.941333-23.168 33.152-46.378667 59.648-46.378667z" fill="#D7000F" p-id="5246"></path></svg>