<?xml version="1.0" standalone="no"?><!DOCTYPE svg PUBLIC "-//W3C//DTD SVG 1.1//EN" "http://www.w3.org/Graphics/SVG/1.1/DTD/svg11.dtd"><svg t="1650107973238" class="icon" viewBox="0 0 1024 1024" version="1.1" xmlns="http://www.w3.org/2000/svg" p-id="5765" xmlns:xlink="http://www.w3.org/1999/xlink" width="200" height="200"><defs><style type="text/css">@font-face { font-family: feedback-iconfont; src: url("//at.alicdn.com/t/font_1031158_u69w8yhxdu.woff2?t=1630033759944") format("woff2"), url("//at.alicdn.com/t/font_1031158_u69w8yhxdu.woff?t=1630033759944") format("woff"), url("//at.alicdn.com/t/font_1031158_u69w8yhxdu.ttf?t=1630033759944") format("truetype"); }
</style></defs><path d="M651.178667 406.442667l2.986666-2.986667c64.768-52.736 141.568-48.213333 167.168-43.690667-10.538667-30.122667-57.173333-130.986667-194.218666-130.986666-61.781333 0-118.997333 28.586667-158.122667 76.8-25.6 33.109333-42.197333 72.234667-45.226667 114.432-10.496 120.448-75.264 177.664-82.773333 183.68a200.106667 200.106667 0 0 1-170.197333 45.226666c12.074667 31.573333 63.274667 135.509333 200.32 130.986667a205.994667 205.994667 0 0 0 143.018666-63.232c45.226667-45.226667 54.229333-114.474667 55.722667-135.552 10.538667-102.4 60.245333-155.093333 81.322667-174.677333m343.338666-194.261334c0-15.061333-7.509333-28.586667-18.048-37.632L869.546667 91.690667s-21.077333-18.048-21.077334 9.045333v338.816a206.08 206.08 0 0 1-70.826666 155.136c-52.650667 45.184-121.941333 66.261333-189.696 55.722667 15.061333 31.573333 73.813333 130.986667 204.8 130.986666 120.448 0 201.813333-106.922667 201.813333-206.293333V212.181333M217.472 413.994667c52.693333-45.226667 121.941333-66.304 189.738667-55.722667-15.061333-31.658667-73.813333-131.029333-204.8-131.029333-120.490667 0-201.813333 106.922667-201.813334 206.293333v368.938667c0 15.061333 6.016 28.586667 18.090667 37.674666l106.922667 82.773334s21.077333 18.090667 21.077333-9.002667v-344.832c0-60.245333 25.6-115.968 70.784-155.136" fill="#074195" p-id="5766"></path></svg>